<svg width="512" height="512" viewBox="0 0 512 512" fill="none" xmlns="http://www.w3.org/2000/svg">
  <defs>
    <linearGradient id="localstorage-bg" x1="96" y1="72" x2="416" y2="440" gradientUnits="userSpaceOnUse">
      <stop offset="0" stop-color="#F8FAFC"/>
      <stop offset="1" stop-color="#C7D0DA"/>
    </linearGradient>
    <linearGradient id="localstorage-body" x1="138" y1="122" x2="374" y2="388" gradientUnits="userSpaceOnUse">
      <stop offset="0" stop-color="#FFFFFF"/>
      <stop offset="1" stop-color="#E2E8F0"/>
    </linearGradient>
    <linearGradient id="localstorage-slot" x1="180" y1="208" x2="332" y2="304" gradientUnits="userSpaceOnUse">
      <stop offset="0" stop-color="#B8C2CE"/>
      <stop offset="1" stop-color="#7E8A97"/>
    </linearGradient>
    <filter id="localstorage-shadow" x="88" y="96" width="336" height="336" filterUnits="userSpaceOnUse" color-interpolation-filters="sRGB">
      <feFlood flood-opacity="0" result="BackgroundImageFix"/>
      <feColorMatrix in="SourceAlpha" type="matrix" values="0 0 0 0 0 0 0 0 0 0 0 0 0 0 0 0 0 0 127 0" result="hardAlpha"/>
      <feOffset dy="18"/>
      <feGaussianBlur stdDeviation="18"/>
      <feColorMatrix type="matrix" values="0 0 0 0 0.12 0 0 0 0 0.16 0 0 0 0 0.2 0 0 0 0.22 0"/>
      <feBlend mode="normal" in2="BackgroundImageFix" result="effect1_dropShadow"/>
      <feBlend mode="normal" in="SourceGraphic" in2="effect1_dropShadow" result="shape"/>
    </filter>
  </defs>
  <rect width="512" height="512" rx="112" fill="url(#localstorage-bg)"/>
  <path d="M106 318H406V364C406 394.928 380.928 420 350 420H162C131.072 420 106 394.928 106 364V318Z" fill="#94A3B8" fill-opacity="0.28"/>
  <g filter="url(#localstorage-shadow)">
    <path d="M138 170C138 143.49 159.49 122 186 122H326C352.51 122 374 143.49 374 170V338C374 364.51 352.51 386 326 386H186C159.49 386 138 364.51 138 338V170Z" fill="url(#localstorage-body)"/>
    <path d="M164 214C164 201.85 173.85 192 186 192H326C338.15 192 348 201.85 348 214V292C348 304.15 338.15 314 326 314H186C173.85 314 164 304.15 164 292V214Z" fill="#CBD5E1"/>
    <path d="M190 224H322V282H190V224Z" fill="url(#localstorage-slot)"/>
    <path d="M190 224H322V242H190V224Z" fill="#F8FAFC" fill-opacity="0.26"/>
    <path d="M180 340H248" stroke="#64748B" stroke-width="16" stroke-linecap="round"/>
    <circle cx="306" cy="340" r="12" fill="#94A3B8"/>
    <circle cx="336" cy="340" r="12" fill="#64748B"/>
  </g>
</svg>
